# xmcd
#
# Track frame offsets:
# 150
# 14056
# 33787
# 55573
#
# Disc length: 951 seconds
#
# Revision: 0
# Processed by: cddbd v1.4PL0 Copyright (c) Steve Scherf et al.
# Submitted via: Audion 3.0.2 (http://www.panic.com/audion/)
#
DISCID=2603b504
DTITLE=elle ven - When
DYEAR=1900
DGENRE=
TTITLE0=When
TTITLE1=D'ave Com Hom
TTITLE2=Shame
TTITLE3=Trying
EXTD=
EXTT0=
EXTT1=
EXTT2=
EXTT3=
PLAYORDER=
